<svg xmlns="http://www.w3.org/2000/svg" viewBox="0 0 78.46 114.26">
  <defs>
    <style>
      .cls-1 {
        fill: #f9a50e;
      }
    </style>
  </defs>
  <title>Asset 10</title>
  <g id="Layer_2" data-name="Layer 2">
    <g id="REWARD">
      <g id="icon">
        <path class="cls-1" d="M21.47,1.74a1.83,1.83,0,0,1,2-1.72C25.29,0,27.13,0,29,0a1.91,1.91,0,0,1,2,2.12c0,5.62.05,11.24-.05,16.86,3.19.13,6.38,0,9.58,0,0-5.63,0-11.25,0-16.88A1.91,1.91,0,0,1,42.23,0c1.94,0,3.9,0,5.85,0a1.83,1.83,0,0,1,1.85,1.8c0,5.74,0,11.48,0,17.23,2.71,0,5.47-.13,8.11.64a21.13,21.13,0,0,1,14,13A24.21,24.21,0,0,1,69.48,55,22.28,22.28,0,0,1,78.3,70.55,22.9,22.9,0,0,1,73.1,88a19.91,19.91,0,0,1-14.64,7.16c-2.85,0-5.7,0-8.55,0,0,5.74,0,11.49,0,17.24a1.82,1.82,0,0,1-1.8,1.79q-3,.07-5.94,0a1.92,1.92,0,0,1-1.75-2.13c0-5.64,0-11.27,0-16.9-3.19,0-6.39-.08-9.58,0,.09,5.61,0,11.23.05,16.85a1.93,1.93,0,0,1-2,2.15c-1.81,0-3.62,0-5.43,0a1.83,1.83,0,0,1-2-1.73c-.06-5.78.05-11.56,0-17.34q-9.17,0-18.33,0a1.9,1.9,0,0,1-1.82-.81c-.62-1,0-2.17.09-3.24.39-1.56.38-3.23,1-4.71,1.12-1.28,3.12-.8,4.53-1.63,3.34-1.36,5-5,5-8.5.05-12.06,0-24.13,0-36.2a11.74,11.74,0,0,0-2.07-7.19,11.15,11.15,0,0,0-7.6-4.13c-.93-.1-2-.48-2.2-1.56C0,25.1,0,23,0,20.9a1.77,1.77,0,0,1,1.78-1.81c6.53,0,13.07,0,19.61,0C21.52,13.3,21.41,7.52,21.47,1.74Zm9.44,31.58V52.91c4.87,0,9.75,0,14.63,0A9.77,9.77,0,0,0,51,35.05a10.67,10.67,0,0,0-6.24-1.73ZM31,61.86c-.14,6.54,0,13.07-.09,19.6,5.45.11,10.89,0,16.34.05,2.12,0,4.32.18,6.35-.62a9.79,9.79,0,0,0-.1-18.44c-2-.71-4.16-.53-6.25-.56C41.79,61.88,36.37,61.93,31,61.86Z"/>
      </g>
    </g>
  </g>
</svg>
