<svg xmlns="http://www.w3.org/2000/svg" xmlns:xlink="http://www.w3.org/1999/xlink" viewBox="0 0 67.82 184">
  <defs>
    <style>
      .cls-1 {
        fill: url(#linear-gradient);
      }

      .cls-2 {
        fill: url(#linear-gradient-2);
      }

      .cls-3 {
        fill: url(#linear-gradient-3);
      }

      .cls-4 {
        fill: url(#linear-gradient-4);
      }

      .cls-5 {
        fill: url(#linear-gradient-5);
      }

      .cls-6 {
        fill: url(#linear-gradient-6);
      }

      .cls-7 {
        fill: url(#linear-gradient-7);
      }

      .cls-8 {
        fill: url(#linear-gradient-8);
      }

      .cls-9 {
        fill: url(#linear-gradient-9);
      }
    </style>
    <linearGradient id="linear-gradient" x1="59.37" y1="166.31" x2="42.23" y2="141.83" gradientUnits="userSpaceOnUse">
      <stop offset="0" stop-color="#f57e83"/>
      <stop offset="1" stop-color="#210f82"/>
    </linearGradient>
    <linearGradient id="linear-gradient-2" x1="8.36" y1="166.24" x2="25.41" y2="141.9" xlink:href="#linear-gradient"/>
    <linearGradient id="linear-gradient-3" x1="33.91" y1="148.03" x2="33.91" y2="100.52" xlink:href="#linear-gradient"/>
    <linearGradient id="linear-gradient-4" x1="59.37" y1="116.04" x2="42.23" y2="91.57" xlink:href="#linear-gradient"/>
    <linearGradient id="linear-gradient-5" x1="8.36" y1="115.98" x2="25.41" y2="91.64" xlink:href="#linear-gradient"/>
    <linearGradient id="linear-gradient-6" x1="33.91" y1="97.77" x2="33.91" y2="50.26" xlink:href="#linear-gradient"/>
    <linearGradient id="linear-gradient-7" x1="59.37" y1="65.78" x2="42.23" y2="41.31" xlink:href="#linear-gradient"/>
    <linearGradient id="linear-gradient-8" x1="8.36" y1="65.72" x2="25.41" y2="41.37" xlink:href="#linear-gradient"/>
    <linearGradient id="linear-gradient-9" x1="33.91" y1="47.5" x2="33.91" y2="0" xlink:href="#linear-gradient"/>
  </defs>
  <title>Asset 8</title>
  <g id="Layer_2" data-name="Layer 2">
    <g id="BLOCKCHAIN">
      <polygon class="cls-1" points="67.83 124.14 67.83 160.38 33.77 184 33.77 147.75 67.83 124.14"/>
      <polygon class="cls-2" points="0 124.14 0 160.38 33.77 184 33.77 147.75 0 124.14"/>
      <polygon class="cls-3" points="0 124.41 34.05 100.52 67.83 124.41 33.77 148.03 0 124.41"/>
      <polygon class="cls-4" points="67.83 73.88 67.83 110.12 33.77 133.74 33.77 97.49 67.83 73.88"/>
      <polygon class="cls-5" points="0 73.88 0 110.12 33.77 133.74 33.77 97.49 0 73.88"/>
      <polygon class="cls-6" points="0 74.15 34.05 50.26 67.83 74.15 33.77 97.77 0 74.15"/>
      <polygon class="cls-7" points="67.83 23.61 67.83 59.86 33.77 83.48 33.77 47.23 67.83 23.61"/>
      <polygon class="cls-8" points="0 23.61 0 59.86 33.77 83.48 33.77 47.23 0 23.61"/>
      <polygon class="cls-9" points="0 23.89 34.05 0 67.83 23.89 33.77 47.51 0 23.89"/>
    </g>
  </g>
</svg>
