<svg xmlns="http://www.w3.org/2000/svg" xmlns:xlink="http://www.w3.org/1999/xlink" viewBox="0 0 498.75 338"><defs><linearGradient id="a" x1="407.57" y1="198.33" x2="378.83" y2="157.28" gradientUnits="userSpaceOnUse"><stop offset="0" stop-color="#00ffe9"/><stop offset="1" stop-color="#2e3192"/></linearGradient><linearGradient id="c" x1="322.03" y1="198.22" x2="350.62" y2="157.39" xlink:href="#a"/><linearGradient id="d" x1="364.88" y1="167.67" x2="364.88" y2="88" xlink:href="#a"/><linearGradient id="e" x1="407.57" y1="110.33" x2="378.83" y2="69.28" xlink:href="#a"/><linearGradient id="f" x1="322.03" y1="110.22" x2="350.62" y2="69.39" xlink:href="#a"/><linearGradient id="g" x1="364.88" y1="79.67" x2="364.88" xlink:href="#a"/><linearGradient id="h" x1="484.57" y1="253.33" x2="455.83" y2="212.28" xlink:href="#a"/><linearGradient id="i" x1="399.03" y1="253.22" x2="427.62" y2="212.39" xlink:href="#a"/><linearGradient id="j" x1="441.88" y1="222.67" x2="441.88" y2="143" xlink:href="#a"/><linearGradient id="k" x1="484.57" y1="165.33" x2="455.83" y2="124.28" xlink:href="#a"/><linearGradient id="l" x1="399.03" y1="165.22" x2="427.62" y2="124.39" xlink:href="#a"/><linearGradient id="m" x1="441.88" y1="134.67" x2="441.88" y2="55" xlink:href="#a"/><linearGradient id="n" x1="319.57" y1="253.33" x2="290.83" y2="212.28" xlink:href="#a"/><linearGradient id="o" x1="234.03" y1="253.22" x2="262.62" y2="212.39" xlink:href="#a"/><linearGradient id="p" x1="276.88" y1="222.67" x2="276.88" y2="143" xlink:href="#a"/><linearGradient id="q" x1="396.57" y1="308.33" x2="367.83" y2="267.28" xlink:href="#a"/><linearGradient id="r" x1="311.03" y1="308.22" x2="339.62" y2="267.39" xlink:href="#a"/><linearGradient id="s" x1="353.88" y1="277.67" x2="353.88" y2="198" xlink:href="#a"/><linearGradient id="t" x1="396.57" y1="220.33" x2="367.83" y2="179.28" xlink:href="#a"/><linearGradient id="u" x1="311.03" y1="220.22" x2="339.62" y2="179.39" xlink:href="#a"/><linearGradient id="v" x1="353.88" y1="189.67" x2="353.88" y2="110" xlink:href="#a"/><linearGradient id="b" x1="99.57" y1="165.33" x2="70.83" y2="124.28" gradientUnits="userSpaceOnUse"><stop offset="0" stop-color="#ffa249"/><stop offset="1" stop-color="#9e00f6"/></linearGradient><linearGradient id="w" x1="14.03" y1="165.22" x2="42.62" y2="124.39" xlink:href="#b"/><linearGradient id="x" x1="56.88" y1="134.67" x2="56.88" y2="55" xlink:href="#b"/></defs><g data-name="Layer 2"><g data-name="Layer 1"><path fill="url(#a)" d="M421.75 127.61v60.79L364.64 228v-60.79l57.11-39.6z"/><path fill="url(#c)" d="M308 127.61v60.79l56.64 39.6v-60.79L308 127.61z"/><path fill="url(#d)" d="M308 128.07L365.11 88l56.64 40.07-57.11 39.6-56.64-39.6z"/><path fill="url(#e)" d="M421.75 39.6v60.79L364.64 140V79.21l57.11-39.61z"/><path fill="url(#f)" d="M308 39.6v60.79L364.64 140V79.21L308 39.6z"/><path fill="url(#g)" d="M308 40.07L365.11 0l56.64 40.07-57.11 39.6L308 40.07z"/><path fill="url(#h)" d="M498.75 182.6v60.8L441.64 283v-60.79l57.11-39.61z"/><path fill="url(#i)" d="M385 182.6v60.8l56.64 39.6v-60.79L385 182.6z"/><path fill="url(#j)" d="M385 183.07L442.11 143l56.64 40.07-57.11 39.6-56.64-39.6z"/><g><path fill="url(#k)" d="M498.75 94.61v60.79L441.64 195v-60.79l57.11-39.6z"/><path fill="url(#l)" d="M385 94.61v60.79l56.64 39.6v-60.79L385 94.61z"/><path fill="url(#m)" d="M385 95.07L442.11 55l56.64 40.07-57.11 39.6L385 95.07z"/></g><g><path fill="url(#n)" d="M333.75 182.6v60.8L276.64 283v-60.79l57.11-39.61z"/><path fill="url(#o)" d="M220 182.6v60.8l56.64 39.6v-60.79L220 182.6z"/><path fill="url(#p)" d="M220 183.07L277.11 143l56.64 40.07-57.11 39.6-56.64-39.6z"/></g><g><path fill="url(#q)" d="M410.75 237.6v60.79L353.64 338v-60.79l57.11-39.61z"/><path fill="url(#r)" d="M297 237.6v60.79L353.64 338v-60.79L297 237.6z"/><path fill="url(#s)" d="M297 238.07L354.11 198l56.64 40.07-57.11 39.6-56.64-39.6z"/></g><g><path fill="url(#t)" d="M410.75 149.6v60.8L353.64 250v-60.79l57.11-39.61z"/><path fill="url(#u)" d="M297 149.6v60.8l56.64 39.6v-60.79L297 149.6z"/><path fill="url(#v)" d="M297 150.07L354.11 110l56.64 40.07-57.11 39.6-56.64-39.6z"/></g><g><path fill="url(#b)" d="M113.75 94.61v60.79L56.65 195v-60.79l57.1-39.6z"/><path fill="url(#w)" d="M0 94.61v60.79L56.65 195v-60.79L0 94.61z"/><path fill="url(#x)" d="M0 95.07L57.1 55l56.65 40.07-57.1 39.6L0 95.07z"/></g></g></g></svg>