<svg xmlns="http://www.w3.org/2000/svg" xmlns:xlink="http://www.w3.org/1999/xlink" viewBox="0 0 498.75 338">
  <defs>
    <style>
      .cls-1 {
        fill: url(#linear-gradient);
      }

      .cls-2 {
        fill: url(#linear-gradient-2);
      }

      .cls-3 {
        fill: url(#linear-gradient-3);
      }

      .cls-4 {
        fill: url(#linear-gradient-4);
      }

      .cls-5 {
        fill: url(#linear-gradient-5);
      }

      .cls-6 {
        fill: url(#linear-gradient-6);
      }

      .cls-7 {
        fill: url(#linear-gradient-7);
      }

      .cls-8 {
        fill: url(#linear-gradient-8);
      }

      .cls-9 {
        fill: url(#linear-gradient-9);
      }

      .cls-10 {
        fill: url(#linear-gradient-10);
      }

      .cls-11 {
        fill: url(#linear-gradient-11);
      }

      .cls-12 {
        fill: url(#linear-gradient-12);
      }

      .cls-13 {
        fill: url(#linear-gradient-13);
      }

      .cls-14 {
        fill: url(#linear-gradient-14);
      }

      .cls-15 {
        fill: url(#linear-gradient-15);
      }

      .cls-16 {
        fill: url(#linear-gradient-16);
      }

      .cls-17 {
        fill: url(#linear-gradient-17);
      }

      .cls-18 {
        fill: url(#linear-gradient-18);
      }

      .cls-19 {
        fill: url(#linear-gradient-19);
      }

      .cls-20 {
        fill: url(#linear-gradient-20);
      }

      .cls-21 {
        fill: url(#linear-gradient-21);
      }

      .cls-22 {
        fill: url(#linear-gradient-22);
      }

      .cls-23 {
        fill: url(#linear-gradient-23);
      }

      .cls-24 {
        fill: url(#linear-gradient-24);
      }

      .cls-25, .cls-26 {
        fill: none;
        stroke: #e6e6e6;
        stroke-miterlimit: 10;
        stroke-width: 2px;
      }

      .cls-26 {
        stroke-dasharray: 11.27 11.27;
      }
    </style>
    <linearGradient id="linear-gradient" x1="407.57" y1="198.33" x2="378.83" y2="157.28" gradientUnits="userSpaceOnUse">
      <stop offset="0" stop-color="#00ffe9"/>
      <stop offset="1" stop-color="#2e3192"/>
    </linearGradient>
    <linearGradient id="linear-gradient-2" x1="322.03" y1="198.22" x2="350.62" y2="157.39" xlink:href="#linear-gradient"/>
    <linearGradient id="linear-gradient-3" x1="364.88" y1="167.67" x2="364.88" y2="88" xlink:href="#linear-gradient"/>
    <linearGradient id="linear-gradient-4" x1="407.57" y1="110.33" x2="378.83" y2="69.28" xlink:href="#linear-gradient"/>
    <linearGradient id="linear-gradient-5" x1="322.03" y1="110.22" x2="350.62" y2="69.39" xlink:href="#linear-gradient"/>
    <linearGradient id="linear-gradient-6" x1="364.88" y1="79.67" x2="364.88" y2="0" xlink:href="#linear-gradient"/>
    <linearGradient id="linear-gradient-7" x1="484.57" y1="253.33" x2="455.83" y2="212.28" xlink:href="#linear-gradient"/>
    <linearGradient id="linear-gradient-8" x1="399.03" y1="253.22" x2="427.62" y2="212.39" xlink:href="#linear-gradient"/>
    <linearGradient id="linear-gradient-9" x1="441.88" y1="222.67" x2="441.88" y2="143" xlink:href="#linear-gradient"/>
    <linearGradient id="linear-gradient-10" x1="484.57" y1="165.33" x2="455.83" y2="124.28" xlink:href="#linear-gradient"/>
    <linearGradient id="linear-gradient-11" x1="399.03" y1="165.22" x2="427.62" y2="124.39" xlink:href="#linear-gradient"/>
    <linearGradient id="linear-gradient-12" x1="441.88" y1="134.67" x2="441.88" y2="55" xlink:href="#linear-gradient"/>
    <linearGradient id="linear-gradient-13" x1="319.57" y1="253.33" x2="290.83" y2="212.28" xlink:href="#linear-gradient"/>
    <linearGradient id="linear-gradient-14" x1="234.03" y1="253.22" x2="262.62" y2="212.39" xlink:href="#linear-gradient"/>
    <linearGradient id="linear-gradient-15" x1="276.88" y1="222.67" x2="276.88" y2="143" xlink:href="#linear-gradient"/>
    <linearGradient id="linear-gradient-16" x1="99.57" y1="165.33" x2="70.83" y2="124.28" gradientUnits="userSpaceOnUse">
      <stop offset="0" stop-color="#ffa249"/>
      <stop offset="1" stop-color="#9e00f6"/>
    </linearGradient>
    <linearGradient id="linear-gradient-17" x1="14.03" y1="165.22" x2="42.62" y2="124.39" xlink:href="#linear-gradient-16"/>
    <linearGradient id="linear-gradient-18" x1="56.88" y1="134.67" x2="56.88" y2="55" xlink:href="#linear-gradient-16"/>
    <linearGradient id="linear-gradient-19" x1="396.57" y1="308.33" x2="367.83" y2="267.28" xlink:href="#linear-gradient"/>
    <linearGradient id="linear-gradient-20" x1="311.03" y1="308.22" x2="339.62" y2="267.39" xlink:href="#linear-gradient"/>
    <linearGradient id="linear-gradient-21" x1="353.88" y1="277.67" x2="353.88" y2="198" xlink:href="#linear-gradient"/>
    <linearGradient id="linear-gradient-22" x1="396.57" y1="220.33" x2="367.83" y2="179.28" xlink:href="#linear-gradient"/>
    <linearGradient id="linear-gradient-23" x1="311.03" y1="220.22" x2="339.62" y2="179.39" xlink:href="#linear-gradient"/>
    <linearGradient id="linear-gradient-24" x1="353.88" y1="189.67" x2="353.88" y2="110" xlink:href="#linear-gradient"/>
  </defs>
  <title>Asset 1</title>
  <g id="Layer_2" data-name="Layer 2">
    <g id="blockchain_graphic">
      <polygon class="cls-1" points="421.75 127.61 421.75 188.4 364.64 228 364.64 167.21 421.75 127.61"/>
      <polygon class="cls-2" points="308 127.61 308 188.4 364.64 228 364.64 167.21 308 127.61"/>
      <polygon class="cls-3" points="308 128.07 365.11 88 421.75 128.07 364.64 167.67 308 128.07"/>
      <polygon class="cls-4" points="421.75 39.6 421.75 100.39 364.64 140 364.64 79.21 421.75 39.6"/>
      <polygon class="cls-5" points="308 39.6 308 100.39 364.64 140 364.64 79.21 308 39.6"/>
      <polygon class="cls-6" points="308 40.07 365.11 0 421.75 40.07 364.64 79.67 308 40.07"/>
      <polygon class="cls-7" points="498.75 182.6 498.75 243.4 441.64 283 441.64 222.21 498.75 182.6"/>
      <polygon class="cls-8" points="385 182.6 385 243.4 441.64 283 441.64 222.21 385 182.6"/>
      <polygon class="cls-9" points="385 183.07 442.11 143 498.75 183.07 441.64 222.67 385 183.07"/>
      <polygon class="cls-10" points="498.75 94.61 498.75 155.4 441.64 195 441.64 134.21 498.75 94.61"/>
      <polygon class="cls-11" points="385 94.61 385 155.4 441.64 195 441.64 134.21 385 94.61"/>
      <polygon class="cls-12" points="385 95.07 442.11 55 498.75 95.07 441.64 134.67 385 95.07"/>
      <polygon class="cls-13" points="333.75 182.6 333.75 243.4 276.64 283 276.64 222.21 333.75 182.6"/>
      <polygon class="cls-14" points="220 182.6 220 243.4 276.64 283 276.64 222.21 220 182.6"/>
      <polygon class="cls-15" points="220 183.07 277.11 143 333.75 183.07 276.64 222.67 220 183.07"/>
      <polygon class="cls-16" points="113.75 94.61 113.75 155.4 56.65 195 56.65 134.21 113.75 94.61"/>
      <polygon class="cls-17" points="0 94.61 0 155.4 56.65 195 56.65 134.21 0 94.61"/>
      <polygon class="cls-18" points="0 95.07 57.1 55 113.75 95.07 56.65 134.67 0 95.07"/>
      <polygon class="cls-19" points="410.75 237.6 410.75 298.39 353.64 338 353.64 277.21 410.75 237.6"/>
      <polygon class="cls-20" points="297 237.6 297 298.39 353.64 338 353.64 277.21 297 237.6"/>
      <polygon class="cls-21" points="297 238.07 354.11 198 410.75 238.07 353.64 277.67 297 238.07"/>
      <polygon class="cls-22" points="410.75 149.6 410.75 210.4 353.64 250 353.64 189.21 410.75 149.6"/>
      <polygon class="cls-23" points="297 149.6 297 210.4 353.64 250 353.64 189.21 297 149.6"/>
      <polygon class="cls-24" points="297 150.07 354.11 110 410.75 150.07 353.64 189.67 297 150.07"/>
      <g>
        <line class="cls-25" x1="140.38" y1="128" x2="146.38" y2="128"/>
        <line class="cls-26" x1="157.65" y1="128" x2="264.74" y2="128"/>
        <line class="cls-25" x1="270.38" y1="128" x2="276.38" y2="128"/>
      </g>
    </g>
  </g>
</svg>
